PathFileType	4	(X/Y/Z)	./resultDataOpenSim/trcMotMarkerGrf/sub09/qtm-12-03.trc
DataRate	CameraRate	NumFrames	NumMarkers	Units	OrigDataRate	OrigDataStartFrame	OrigNumFrames
250.000000	250.000000	14	24	m	250.000000	234	466
Frame#	Time	L.Toe.Tip			R.Toe.Tip			L.Ankle.Lat			R.Ankle.Lat			L.Ankle.Med			R.Ankle.Med			L.Heel			R.Heel			L.Knee.Lat			R.Knee.Lat			L.Knee.Med			R.Knee.Med			L.Thigh.Upper			R.Thigh.Upper			L.ASIS			R.ASIS			V.Sacral			L.Acromium			R.Acromium			C7			L.Elbow			R.Elbow			L.Wrist.Lat			R.Wrist.Lat
		X1	Y1	Z1	X2	Y2	Z2	X3	Y3	Z3	X4	Y4	Z4	X5	Y5	Z5	X6	Y6	Z6	X7	Y7	Z7	X8	Y8	Z8	X9	Y9	Z9	X10	Y10	Z10	X11	Y11	Z11	X12	Y12	Z12	X13	Y13	Z13	X14	Y14	Z14	X15	Y15	Z15	X16	Y16	Z16	X17	Y17	Z17	X18	Y18	Z18	X19	Y19	Z19	X20	Y20	Z20	X21	Y21	Z21	X22	Y22	Z22	X23	Y23	Z23	X24	Y24	Z24

234	0.932	0.2081987	0.015966182	-0.02885961	0.61972851	0.12050839	0.073076474	0.0606349	0.050121573	-0.070963918	0.47063188	0.11665471	0.099485058	0.081305522	0.07252498	0.023708047	0.48429703	0.15465929	0.0078776583	-0.012320007	0.018079552	-0.024077772	0.41136165	0.083709663	0.047267737	0.16728956	0.45372391	-0.13524547	0.48935454	0.57406871	0.14201921	0.16316755	0.45964057	-0.010340408	0.49193109	0.55630548	0.01627683	0.22523349	0.87223807	-0.19970358	0.22891586	0.88879025	0.17255721	0.31567885	0.95822063	-0.14032066	0.30348382	0.97447013	0.099241214	0.14135857	1.0174573	-0.031759674	0.34308341	1.4032153	-0.18441741	0.2929186	1.4294028	0.14039612	0.25685582	1.4714835	-0.033335363	0.18612022	1.0700563	-0.27073657	0.088665221	1.1403996	0.21948842	0.35761488	0.86162572	-0.26564243	0.12337308	0.87967974	0.28802642
235	0.936	0.20819451	0.015929062	-0.029000251	0.63951716	0.12172275	0.071880045	0.060652492	0.05031637	-0.070955926	0.49008088	0.1144203	0.09792192	0.081546922	0.072736777	0.023799388	0.50326735	0.15280891	0.0063665629	-0.012243465	0.018371034	-0.023434882	0.43204369	0.080003686	0.045334982	0.16807574	0.45379412	-0.13562487	0.49590245	0.57251285	0.14179671	0.16411588	0.45996068	-0.01102574	0.49891262	0.5546783	0.015805469	0.2308186	0.87137988	-0.19978801	0.23580712	0.88744308	0.17250175	0.32204549	0.95709254	-0.14071808	0.31034606	0.97317304	0.098957382	0.14789101	1.016285	-0.03152556	0.34913361	1.4022016	-0.18468713	0.29928971	1.4283636	0.14017733	0.26286898	1.4703722	-0.033393968	0.19273185	1.0686244	-0.27082793	0.095076567	1.139616	0.21928689	0.36526743	0.8609929	-0.26555406	0.12862897	0.87881239	0.28783193
236	0.94	0.20819487	0.015895899	-0.029152589	0.65907319	0.12304611	0.070747619	0.060714203	0.050507324	-0.070926808	0.50936276	0.11239205	0.096404743	0.081850575	0.073016267	0.023892623	0.52210843	0.15116766	0.0049086408	-0.012192191	0.018727335	-0.022757515	0.45262121	0.076596062	0.043401761	0.16893232	0.45387228	-0.13602214	0.50228159	0.57073724	0.14153957	0.16485455	0.46027163	-0.011697204	0.5056272	0.55288987	0.015463144	0.23640398	0.87046909	-0.19987036	0.24266981	0.88599021	0.17244491	0.32842641	0.95588872	-0.14108966	0.31723616	0.971798	0.09868284	0.154542	1.0150667	-0.031265723	0.3551829	1.4011353	-0.18495585	0.30564702	1.4272657	0.13995557	0.26893552	1.4692019	-0.033513776	0.19935433	1.0671434	-0.27088894	0.10146604	1.1387619	0.21911031	0.37290443	0.86031036	-0.26546323	0.13400099	0.87789085	0.28767377
237	0.944	0.20820814	0.015869631	-0.02930567	0.67834602	0.12449502	0.069696306	0.060604665	0.050761857	-0.070665205	0.52853769	0.11047666	0.094841531	0.082216134	0.073393605	0.024024652	0.54079274	0.14975634	0.0035156494	-0.012163171	0.019149018	-0.022035182	0.47306555	0.073511662	0.041476046	0.16982586	0.4539279	-0.13646403	0.50850884	0.56876177	0.14123656	0.16553231	0.46045999	-0.012417381	0.51220929	0.55094822	0.015179319	0.24197548	0.86950709	-0.19996042	0.24950343	0.88444047	0.17238862	0.33480188	0.95460902	-0.14143808	0.32415742	0.97035585	0.098415525	0.16129017	1.0138179	-0.030997402	0.36123161	1.4000152	-0.18522655	0.31199013	1.4261149	0.1397328	0.275103	1.4679592	-0.033778013	0.20597629	1.0656045	-0.27095538	0.10780326	1.13784	0.21897619	0.38052756	0.85957975	-0.26536911	0.13946266	0.8769155	0.28753371
238	0.948	0.20823721	0.015848018	-0.029446848	0.69731834	0.1260783	0.068739913	0.060227608	0.051118249	-0.070087535	0.54761795	0.10865939	0.093193579	0.082643458	0.073866144	0.024213731	0.5593174	0.14858787	0.0021885323	-0.012140434	0.01962578	-0.021231015	0.49336213	0.070759755	0.039531083	0.17072815	0.45393535	-0.13698432	0.5146194	0.56661796	0.14088365	0.16638231	0.46043092	-0.013147277	0.51875408	0.54887053	0.014885991	0.2475271	0.86848812	-0.20005175	0.25631116	0.88280378	0.17233506	0.34114905	0.95325227	-0.14177445	0.33110995	0.96884806	0.098156563	0.16807018	1.0125199	-0.030732498	0.36728463	1.3988396	-0.18549799	0.31833145	1.4249131	0.13951355	0.2813387	1.4666359	-0.0341429	0.21258237	1.0640068	-0.2710516	0.11409092	1.1368496	0.218883	0.38813867	0.85880109	-0.26527155	0.14501339	0.8758913	0.28740874
239	0.952	0.20827686	0.015824366	-0.029568258	0.71598658	0.12778522	0.067875525	0.059737089	0.051547307	-0.069350848	0.56657064	0.1069966	0.091509873	0.083119577	0.074391902	0.024452238	0.57767192	0.14766121	0.00092696776	-0.012111486	0.020149874	-0.02033088	0.51351266	0.068331093	0.037513117	0.17167843	0.45389441	-0.13757295	0.52064438	0.56432659	0.14048011	0.16755094	0.46021991	-0.013777059	0.52529051	0.5466681	0.014529298	0.25303362	0.86740463	-0.20015491	0.26310421	0.88109035	0.17228615	0.34745707	0.95181962	-0.14210673	0.33809419	0.96727126	0.097910707	0.17481159	1.0111323	-0.030486815	0.37335498	1.3976039	-0.18576196	0.32467532	1.4236586	0.1393019	0.28758143	1.4652318	-0.034504713	0.21917341	1.0623575	-0.27116372	0.12036905	1.135795	0.21880156	0.3957371	0.85797246	-0.2651742	0.1506465	0.87481697	0.28730033
240	0.956	0.20831906	0.015792782	-0.02966655	0.7343394	0.12959651	0.06709366	0.059342008	0.051997846	-0.068663631	0.58535813	0.10553703	0.089859262	0.08361712	0.074914763	0.024721722	0.59581681	0.14696864	-0.00027325978	-0.012066885	0.020719587	-0.01936722	0.53350305	0.066212433	0.035385444	0.17278338	0.45382302	-0.13816861	0.52657723	0.561884	0.14003262	0.1689791	0.46000511	-0.014276412	0.5318002	0.54433596	0.01406804	0.25844984	0.86625427	-0.20030394	0.2698992	0.87931296	0.17224267	0.35373311	0.95031154	-0.1424311	0.34511233	0.96562515	0.097681457	0.18149513	1.0096368	-0.030263763	0.37945687	1.3963028	-0.18601008	0.33101185	1.4223512	0.13909981	0.29379405	1.4637511	-0.034781982	0.22576443	1.0606654	-0.27126314	0.12668367	1.1346918	0.21869888	0.40331975	0.85709253	-0.26508016	0.15634483	0.87368934	0.28720977
241	0.96	0.20835959	0.01575247	-0.029741149	0.75235457	0.13148737	0.066382016	0.059117461	0.052440355	-0.068099684	0.60388433	0.1043135	0.088282992	0.084109997	0.075395065	0.025005615	0.61369116	0.14650022	-0.0014258254	-0.012002101	0.021334688	-0.018411623	0.55325073	0.064402101	0.033187368	0.17413968	0.45373189	-0.13870547	0.53236017	0.55926364	0.1395554	0.17049844	0.45998925	-0.014747924	0.5382586	0.54187065	0.013488999	0.26377617	0.86504411	-0.20050872	0.27671548	0.87748744	0.17220576	0.35998948	0.94872783	-0.14273584	0.35217031	0.9639152	0.097466147	0.18815908	1.008061	-0.030041446	0.38559396	1.3949364	-0.18624255	0.33733679	1.4209942	0.13890734	0.29996629	1.4622098	-0.034942202	0.23236453	1.0589349	-0.27134354	0.13304462	1.1335525	0.21857621	0.41088488	0.85616474	-0.26498572	0.1620915	0.8725074	0.28713798
242	0.964	0.20839727	0.015706084	-0.029794234	0.77000357	0.13343137	0.065721901	0.05903066	0.052867895	-0.067627818	0.62190652	0.10340348	0.086821831	0.084582586	0.075819049	0.025292141	0.63123065	0.14624225	-0.0025465907	-0.011923229	0.021990395	-0.017544757	0.57260085	0.062906242	0.031037602	0.17577854	0.4536142	-0.13915307	0.53796654	0.5564583	0.13905556	0.17215121	0.46019436	-0.015264898	0.54466785	0.53929446	0.012813126	0.26910443	0.86378683	-0.20071972	0.28357014	0.87562643	0.17217507	0.36622498	0.94707188	-0.14301347	0.35928092	0.96215156	0.097256379	0.19486083	1.006451	-0.029779161	0.39175973	1.3935105	-0.18646908	0.34365846	1.4195911	0.13872148	0.30611438	1.4606368	-0.035019093	0.23896652	1.057165	-0.27142623	0.13943573	1.132356	0.21845296	0.41844021	0.85519868	-0.26487703	0.16787823	0.87127375	0.28709027
243	0.968	0.2084311	0.015655199	-0.02983046	0.78725456	0.13541512	0.065092401	0.059030245	0.05328543	-0.067215038	0.63914046	0.10291006	0.085527769	0.085027607	0.076187924	0.02557151	0.64838204	0.14617694	-0.0036420851	-0.011843755	0.022675163	-0.016825621	0.59141125	0.06171689	0.029035193	0.1776812	0.45345645	-0.13951349	0.54350025	0.55351905	0.13852099	0.17429432	0.46038328	-0.015704221	0.55105305	0.53665194	0.012067748	0.27453964	0.86248823	-0.20086574	0.29047235	0.87373246	0.1721471	0.37241956	0.94535163	-0.14327254	0.36645602	0.960344	0.097042624	0.20163411	1.0048317	-0.029440197	0.39794777	1.3920332	-0.1867023	0.34998555	1.418144	0.13854005	0.31227022	1.4590538	-0.035090224	0.24555901	1.0553523	-0.27153633	0.14584427	1.1310656	0.21833261	0.42600308	0.85420503	-0.26473536	0.1737164	0.86999763	0.28707579
244	0.972	0.20846033	0.015598632	-0.029856449	0.8040677	0.13745818	0.064485537	0.059082754	0.053699205	-0.066860522	0.65553226	0.10283508	0.084406036	0.085443048	0.076506938	0.025833635	0.6651039	0.1462815	-0.0047096756	-0.011772528	0.023374514	-0.016274445	0.60962286	0.060795149	0.027160546	0.17982212	0.45324678	-0.13979945	0.54911522	0.55051386	0.13793111	0.17716537	0.46028819	-0.015832456	0.5574391	0.53398434	0.011257247	0.28009291	0.8611473	-0.20090796	0.29743234	0.87180315	0.17212302	0.37854611	0.94358052	-0.14353949	0.37369591	0.95849662	0.096817172	0.20846216	1.0031982	-0.029025103	0.40415665	1.3905103	-0.18694817	0.35632546	1.4166544	0.13836683	0.31845303	1.457457	-0.035207604	0.25214342	1.0534972	-0.27167938	0.1522352	1.1297005	0.21823126	0.43357891	0.85318514	-0.26455973	0.17964983	0.86869265	0.28709837
245	0.976	0.20848523	0.015534405	-0.029880571	0.82039513	0.13961711	0.06391215	0.059176686	0.05410575	-0.066575286	0.67134549	0.10300902	0.083375199	0.085835333	0.076784899	0.026070071	0.68135768	0.14652568	-0.0057471228	-0.011706081	0.024080607	-0.01586976	0.62722918	0.060080868	0.025306931	0.18219848	0.45297134	-0.1400204	0.55486257	0.54746491	0.13727116	0.18049102	0.45986052	-0.015534869	0.56383682	0.53131164	0.010366565	0.28569285	0.85977299	-0.20083963	0.30446717	0.86984188	0.17210881	0.38458443	0.94178389	-0.14384876	0.38099318	0.95661004	0.096575448	0.21528322	1.0015389	-0.028579944	0.41038933	1.3889473	-0.18719909	0.36268735	1.4151254	0.13820697	0.32467023	1.4558274	-0.035369295	0.25873451	1.0516079	-0.27184095	0.15856088	1.1283238	0.21817496	0.44114485	0.85212587	-0.2643831	0.18573593	0.86736424	0.28715182
246	0.98	0.20850717	0.015461973	-0.029911451	0.83620102	0.14194867	0.063383387	0.059315064	0.054494355	-0.066359863	0.68688246	0.10322343	0.082338842	0.086225242	0.077036294	0.02627816	0.69710912	0.14687574	-0.0067568232	-0.011630566	0.024797489	-0.015562722	0.64424174	0.059517342	0.023413925	0.18482867	0.45261247	-0.1401802	0.56069753	0.54435781	0.13654378	0.1837959	0.45923223	-0.014925611	0.5702369	0.52863722	0.0093854352	0.29127112	0.85838717	-0.20067343	0.31158941	0.86785438	0.17210449	0.39052626	0.94000031	-0.14422829	0.38834041	0.95468932	0.09631774	0.22204335	0.99985679	-0.028148772	0.41665313	1.3873524	-0.18743906	0.36907736	1.4135628	0.13806186	0.33093351	1.4541591	-0.03554422	0.26534657	1.0496939	-0.27200377	0.16481563	1.1269608	0.21814851	0.44867226	0.8510123	-0.26424314	0.19198351	0.86599774	0.28722537
247	0.984	0.20852887	0.015382536	-0.029953005	0.85146563	0.1444639	0.062898075	0.059503931	0.054862242	-0.066200222	0.70218863	0.1034167	0.081282549	0.086644718	0.077279627	0.026462536	0.71233718	0.14730393	-0.0077376856	-0.011529532	0.025536827	-0.015304566	0.66070981	0.059061698	0.021564234	0.18772851	0.45215899	-0.14028324	0.566543	0.54117905	0.13579653	0.18693597	0.45856372	-0.014285027	0.57660612	0.52596575	0.0083302871	0.29680553	0.85700895	-0.20045241	0.31880391	0.86583767	0.17210508	0.39638895	0.93825509	-0.14467462	0.39573047	0.9527488	0.096047155	0.2287598	0.9981676	-0.02771928	0.42295481	1.385737	-0.18765943	0.3754952	1.4119715	0.13793151	0.33725086	1.4524698	-0.035698623	0.27198368	1.0477614	-0.27215875	0.17099768	1.1256065	0.21812791	0.45615488	0.84984403	-0.26414383	0.19832959	0.86457196	0.28731584
